{
  "accessors": [
    {
      "bufferView": 1,
      "componentType": 5126,
      "count": 65533,
      "max": [
        0.14379243552684784,
        0.12397632747888565,
        0.3612639605998993
      ],
      "min": [
        -0.19867470860481262,
        -0.3126712143421173,
        -1.8104394257534295e-05
      ],
      "type": "VEC3"
    },
    {
      "bufferView": 1,
      "byteOffset": 786396,
      "componentType": 5126,
      "count": 65533,
      "max": [
        0.9998890161514282,
        0.999967098236084,
        0.9997336864471436
      ],
      "min": [
        -0.9999722242355347,
        -0.9998133182525635,
        -1.0
      ],
      "type": "VEC3"
    },
    {
      "bufferView": 2,
      "componentType": 5126,
      "count": 65533,
      "max": [
        0.7372549176216125,
        0.7372549176216125,
        0.7372549176216125,
        1.0
      ],
      "min": [
        0.7372549176216125,
        0.7372549176216125,
        0.7372549176216125,
        1.0
      ],
      "type": "VEC4"
    },
    {
      "bufferView": 0,
      "componentType": 5125,
      "count": 65652,
      "type": "SCALAR"
    },
    {
      "bufferView": 1,
      "byteOffset": 1572792,
      "componentType": 5126,
      "count": 50862,
      "max": [
        0.13753126561641693,
        0.12327703833580017,
        0.3612639605998993
      ],
      "min": [
        -0.1989184021949768,
        -0.21545244753360748,
        -5.897318260394968e-06
      ],
      "type": "VEC3"
    },
    {
      "bufferView": 1,
      "byteOffset": 2183136,
      "componentType": 5126,
      "count": 50862,
      "max": [
        0.9998473525047302,
        0.9998764991760254,
        0.9999244213104248
      ],
      "min": [
        -0.9999672174453735,
        -0.99997878074646,
        -1.0
      ],
      "type": "VEC3"
    },
    {
      "bufferView": 2,
      "byteOffset": 1048528,
      "componentType": 5126,
      "count": 50862,
      "max": [
        0.7372549176216125,
        0.7372549176216125,
        0.7372549176216125,
        1.0
      ],
      "min": [
        0.7372549176216125,
        0.7372549176216125,
        0.7372549176216125,
        1.0
      ],
      "type": "VEC4"
    },
    {
      "bufferView": 0,
      "byteOffset": 262608,
      "componentType": 5125,
      "count": 50874,
      "type": "SCALAR"
    },
    {
      "bufferView": 1,
      "byteOffset": 2793480,
      "componentType": 5126,
      "count": 138,
      "max": [
        -0.15587712824344635,
        -0.10615574568510056,
        0.25470778346061707
      ],
      "min": [
        -0.18445062637329102,
        -0.15491770207881927,
        0.21142540872097015
      ],
      "type": "VEC3"
    },
    {
      "bufferView": 1,
      "byteOffset": 2795136,
      "componentType": 5126,
      "count": 138,
      "max": [
        0.9300394654273987,
        0.6179913878440857,
        0.2496986836194992
      ],
      "min": [
        -0.981961727142334,
        -0.8511090278625488,
        -0.5513128042221069
      ],
      "type": "VEC3"
    },
    {
      "bufferView": 2,
      "byteOffset": 1862320,
      "componentType": 5126,
      "count": 138,
      "max": [
        0.7372549176216125,
        0.7372549176216125,
        0.7372549176216125,
        1.0
      ],
      "min": [
        0.7372549176216125,
        0.7372549176216125,
        0.7372549176216125,
        1.0
      ],
      "type": "VEC4"
    },
    {
      "bufferView": 0,
      "byteOffset": 466104,
      "componentType": 5125,
      "count": 138,
      "type": "SCALAR"
    },
    {
      "bufferView": 1,
      "byteOffset": 2796792,
      "componentType": 5126,
      "count": 132,
      "max": [
        -0.15745259821414948,
        -0.03412766754627228,
        0.25455158948898315
      ],
      "min": [
        -0.1843855381011963,
        -0.08328764140605927,
        0.21142540872097015
      ],
      "type": "VEC3"
    },
    {
      "bufferView": 1,
      "byteOffset": 2798376,
      "componentType": 5126,
      "count": 132,
      "max": [
        0.9342283606529236,
        0.8727428317070007,
        0.3597070276737213
      ],
      "min": [
        -0.9872922301292419,
        -0.5656903386116028,
        -0.43778473138809204
      ],
      "type": "VEC3"
    },
    {
      "bufferView": 2,
      "byteOffset": 1864528,
      "componentType": 5126,
      "count": 132,
      "max": [
        0.7372549176216125,
        0.7372549176216125,
        0.7372549176216125,
        1.0
      ],
      "min": [
        0.7372549176216125,
        0.7372549176216125,
        0.7372549176216125,
        1.0
      ],
      "type": "VEC4"
    },
    {
      "bufferView": 0,
      "byteOffset": 466656,
      "componentType": 5125,
      "count": 132,
      "type": "SCALAR"
    },
    {
      "bufferView": 1,
      "byteOffset": 2799960,
      "componentType": 5126,
      "count": 1152,
      "max": [
        -0.06295214593410492,
        -0.010103436186909676,
        0.25749921798706055
      ],
      "min": [
        -0.18783491849899292,
        -0.1794617474079132,
        0.20866243541240692
      ],
      "type": "VEC3"
    },
    {
      "bufferView": 1,
      "byteOffset": 2813784,
      "componentType": 5126,
      "count": 1152,
      "max": [
        0.9991822242736816,
        0.9762399196624756,
        0.999382734298706
      ],
      "min": [
        -0.9987741708755493,
        -0.9986945390701294,
        -0.9997478127479553
      ],
      "type": "VEC3"
    },
    {
      "bufferView": 2,
      "byteOffset": 1866640,
      "componentType": 5126,
      "count": 1152,
      "max": [
        0.7372549176216125,
        0.7372549176216125,
        0.7372549176216125,
        1.0
      ],
      "min": [
        0.7372549176216125,
        0.7372549176216125,
        0.7372549176216125,
        1.0
      ],
      "type": "VEC4"
    },
    {
      "bufferView": 0,
      "byteOffset": 467184,
      "componentType": 5125,
      "count": 1152,
      "type": "SCALAR"
    },
    {
      "bufferView": 1,
      "byteOffset": 2827608,
      "componentType": 5126,
      "count": 3972,
      "max": [
        -0.06678930670022964,
        -0.16429764032363892,
        0.20006446540355682
      ],
      "min": [
        -0.0744844377040863,
        -0.17199569940567017,
        0.19236840307712555
      ],
      "type": "VEC3"
    },
    {
      "bufferView": 1,
      "byteOffset": 2875272,
      "componentType": 5126,
      "count": 3972,
      "max": [
        0.9988477230072021,
        0.9977813363075256,
        0.9991452693939209
      ],
      "min": [
        -0.9989277720451355,
        -0.999312162399292,
        -0.9976773858070374
      ],
      "type": "VEC3"
    },
    {
      "bufferView": 2,
      "byteOffset": 1885072,
      "componentType": 5126,
      "count": 3972,
      "max": [
        0.7372549176216125,
        0.7372549176216125,
        0.7372549176216125,
        1.0
      ],
      "min": [
        0.7372549176216125,
        0.7372549176216125,
        0.7372549176216125,
        1.0
      ],
      "type": "VEC4"
    },
    {
      "bufferView": 0,
      "byteOffset": 471792,
      "componentType": 5125,
      "count": 3972,
      "type": "SCALAR"
    },
    {
      "bufferView": 1,
      "byteOffset": 2922936,
      "componentType": 5126,
      "count": 4030,
      "max": [
        -0.06679552793502808,
        -0.019181858748197556,
        0.21142634749412537
      ],
      "min": [
        -0.07449202239513397,
        -0.026874501258134842,
        0.20372360944747925
      ],
      "type": "VEC3"
    },
    {
      "bufferView": 1,
      "byteOffset": 2971296,
      "componentType": 5126,
      "count": 4030,
      "max": [
        0.9972530603408813,
        0.9981096386909485,
        0.9990530014038086
      ],
      "min": [
        -0.9995656609535217,
        -0.9988797307014465,
        -0.9996486902236938
      ],
      "type": "VEC3"
    },
    {
      "bufferView": 2,
      "byteOffset": 1948624,
      "componentType": 5126,
      "count": 4030,
      "max": [
        0.7372549176216125,
        0.7372549176216125,
        0.7372549176216125,
        1.0
      ],
      "min": [
        0.7372549176216125,
        0.7372549176216125,
        0.7372549176216125,
        1.0
      ],
      "type": "VEC4"
    },
    {
      "bufferView": 0,
      "byteOffset": 487680,
      "componentType": 5125,
      "count": 4032,
      "type": "SCALAR"
    }
  ],
  "asset": {
    "extras": {
      "author": "victoriusolo (https://sketchfab.com/victoriusolo)",
      "license": "CC-BY-4.0 (http://creativecommons.org/licenses/by/4.0/)",
      "source": "https://sketchfab.com/3d-models/vika7-f24799aab5f04258abd380e428e2a31e",
      "title": "Vika7"
    },
    "generator": "Sketchfab-15.38.0",
    "version": "2.0"
  },
  "bufferViews": [
    {
      "buffer": 0,
      "byteLength": 503808,
      "name": "floatBufferViews",
      "target": 34963
    },
    {
      "buffer": 0,
      "byteLength": 3019656,
      "byteOffset": 503808,
      "byteStride": 12,
      "name": "floatBufferViews",
      "target": 34962
    },
    {
      "buffer": 0,
      "byteLength": 2013104,
      "byteOffset": 3523464,
      "byteStride": 16,
      "name": "floatBufferViews",
      "target": 34962
    }
  ],
  "buffers": [
    {
      "byteLength": 5536568,
      "uri": "scene.bin"
    }
  ],
  "materials": [
    {
      "doubleSided": true,
      "name": "Scene_-_Root",
      "pbrMetallicRoughness": {
        "metallicFactor": 0.0,
        "roughnessFactor": 0.6
      }
    }
  ],
  "meshes": [
    {
      "name": "Object_0",
      "primitives": [
        {
          "attributes": {
            "COLOR_0": 2,
            "NORMAL": 1,
            "POSITION": 0
          },
          "indices": 3,
          "material": 0,
          "mode": 4
        }
      ]
    },
    {
      "name": "Object_1",
      "primitives": [
        {
          "attributes": {
            "COLOR_0": 6,
            "NORMAL": 5,
            "POSITION": 4
          },
          "indices": 7,
          "material": 0,
          "mode": 4
        }
      ]
    },
    {
      "name": "Object_2",
      "primitives": [
        {
          "attributes": {
            "COLOR_0": 10,
            "NORMAL": 9,
            "POSITION": 8
          },
          "indices": 11,
          "material": 0,
          "mode": 4
        }
      ]
    },
    {
      "name": "Object_3",
      "primitives": [
        {
          "attributes": {
            "COLOR_0": 14,
            "NORMAL": 13,
            "POSITION": 12
          },
          "indices": 15,
          "material": 0,
          "mode": 4
        }
      ]
    },
    {
      "name": "Object_4",
      "primitives": [
        {
          "attributes": {
            "COLOR_0": 18,
            "NORMAL": 17,
            "POSITION": 16
          },
          "indices": 19,
          "material": 0,
          "mode": 4
        }
      ]
    },
    {
      "name": "Object_5",
      "primitives": [
        {
          "attributes": {
            "COLOR_0": 22,
            "NORMAL": 21,
            "POSITION": 20
          },
          "indices": 23,
          "material": 0,
          "mode": 4
        }
      ]
    },
    {
      "name": "Object_6",
      "primitives": [
        {
          "attributes": {
            "COLOR_0": 26,
            "NORMAL": 25,
            "POSITION": 24
          },
          "indices": 27,
          "material": 0,
          "mode": 4
        }
      ]
    }
  ],
  "nodes": [
    {
      "children": [
        1
      ],
      "matrix": [
        1.0,
        0.0,
        0.0,
        0.0,
        0.0,
        2.220446049250313e-16,
        -1.0,
        0.0,
        0.0,
        1.0,
        2.220446049250313e-16,
        0.0,
        0.0,
        0.0,
        0.0,
        1.0
      ],
      "name": "Sketchfab_model"
    },
    {
      "children": [
        2
      ],
      "name": "root"
    },
    {
      "children": [
        3,
        6,
        8,
        10,
        12,
        14
      ],
      "matrix": [
        1.0,
        0.0,
        0.0,
        0.0,
        0.0,
        2.220446049250313e-16,
        1.0,
        0.0,
        0.0,
        -1.0,
        2.220446049250313e-16,
        0.0,
        0.0,
        0.0,
        0.0,
        1.0
      ],
      "name": "GLTF_SceneRootNode"
    },
    {
      "children": [
        4,
        5
      ],
      "matrix": [
        1.0,
        0.0,
        -0.0,
        0.0,
        0.0,
        -3.371747936409264e-07,
        -0.999999999999943,
        0.0,
        0.0,
        0.999999999999943,
        -3.371747936409264e-07,
        0.0,
        0.027562985196709633,
        0.0,
        -0.09434743225574493,
        1.0
      ],
      "name": "Mesh_0_0"
    },
    {
      "mesh": 0,
      "name": "Object_4"
    },
    {
      "mesh": 1,
      "name": "Object_5"
    },
    {
      "children": [
        7
      ],
      "matrix": [
        1.0,
        0.0,
        -0.0,
        0.0,
        0.0,
        -3.371747936409264e-07,
        -0.999999999999943,
        0.0,
        0.0,
        0.999999999999943,
        -3.371747936409264e-07,
        0.0,
        0.027562985196709633,
        0.0,
        -0.09434743225574493,
        1.0
      ],
      "name": "Mesh_1_1"
    },
    {
      "mesh": 2,
      "name": "Object_7"
    },
    {
      "children": [
        9
      ],
      "matrix": [
        1.0,
        0.0,
        -0.0,
        0.0,
        0.0,
        -3.371747936409264e-07,
        -0.999999999999943,
        0.0,
        0.0,
        0.999999999999943,
        -3.371747936409264e-07,
        0.0,
        0.027562985196709633,
        0.0,
        -0.09434743225574493,
        1.0
      ],
      "name": "Mesh_2_2"
    },
    {
      "mesh": 3,
      "name": "Object_9"
    },
    {
      "children": [
        11
      ],
      "matrix": [
        1.0,
        0.0,
        -0.0,
        0.0,
        0.0,
        -3.371747936409264e-07,
        -0.999999999999943,
        0.0,
        0.0,
        0.999999999999943,
        -3.371747936409264e-07,
        0.0,
        0.027562985196709633,
        0.0,
        -0.09434743225574493,
        1.0
      ],
      "name": "Mesh_3_3"
    },
    {
      "mesh": 4,
      "name": "Object_11"
    },
    {
      "children": [
        13
      ],
      "matrix": [
        1.0,
        0.0,
        -0.0,
        0.0,
        0.0,
        -3.371747936409264e-07,
        -0.999999999999943,
        0.0,
        0.0,
        0.999999999999943,
        -3.371747936409264e-07,
        0.0,
        0.027562985196709633,
        0.0,
        -0.09434743225574493,
        1.0
      ],
      "name": "Mesh_4_4"
    },
    {
      "mesh": 5,
      "name": "Object_13"
    },
    {
      "children": [
        15
      ],
      "matrix": [
        1.0,
        0.0,
        -0.0,
        0.0,
        0.0,
        -3.371747936409264e-07,
        -0.999999999999943,
        0.0,
        0.0,
        0.999999999999943,
        -3.371747936409264e-07,
        0.0,
        0.027562985196709633,
        0.0,
        -0.09434743225574493,
        1.0
      ],
      "name": "Mesh_5_5"
    },
    {
      "mesh": 6,
      "name": "Object_15"
    }
  ],
  "scene": 0,
  "scenes": [
    {
      "name": "Sketchfab_Scene",
      "nodes": [
        0
      ]
    }
  ]
}
