{
	"asset":{
		"generator":"Khronos glTF Blender I/O v3.6.27",
		"version":"2.0"
	},
	"scene":0,
	"scenes":[
		{
			"name":"Scene",
			"nodes":[
				0
			]
		}
	],
	"nodes":[
		{
			"mesh":0,
			"name":"model1 - Copy - Copy",
			"scale":[
				0.527450680732727,
				0.527450680732727,
				0.527450680732727
			]
		}
	],
	"meshes":[
		{
			"name":"model1 - Copy - Copy",
			"primitives":[
				{
					"attributes":{
						"POSITION":0,
						"NORMAL":1
					},
					"indices":2
				}
			]
		}
	],
	"accessors":[
		{
			"bufferView":0,
			"componentType":5126,
			"count":96334,
			"max":[
				143.8351287841797,
				538.6453857421875,
				312.6727294921875
			],
			"min":[
				-198.9673614501953,
				177.40463256835938,
				-124.04841613769531
			],
			"type":"VEC3"
		},
		{
			"bufferView":1,
			"componentType":5126,
			"count":96334,
			"type":"VEC3"
		},
		{
			"bufferView":2,
			"componentType":5125,
			"count":585918,
			"type":"SCALAR"
		}
	],
	"bufferViews":[
		{
			"buffer":0,
			"byteLength":1156008,
			"byteOffset":0,
			"target":34962
		},
		{
			"buffer":0,
			"byteLength":1156008,
			"byteOffset":1156008,
			"target":34962
		},
		{
			"buffer":0,
			"byteLength":2343672,
			"byteOffset":2312016,
			"target":34963
		}
	],
	"buffers":[
		{
			"byteLength":4655688,
			"uri":"vika.bin"
		}
	]
}
