{
  "accessors": [
    {
      "bufferView": 1,
      "componentType": 5126,
      "count": 65532,
      "max": [
        39.26778030395508,
        41.3798828125,
        100.05210876464844
      ],
      "min": [
        -35.23153305053711,
        -30.660812377929688,
        7.62939453125e-06
      ],
      "type": "VEC3"
    },
    {
      "bufferView": 1,
      "byteOffset": 786384,
      "componentType": 5126,
      "count": 65532,
      "max": [
        0.999987006187439,
        1.0,
        0.9999610185623169
      ],
      "min": [
        -0.9999846816062927,
        -0.9999958872795105,
        -0.9999818205833435
      ],
      "type": "VEC3"
    },
    {
      "bufferView": 0,
      "componentType": 5125,
      "count": 313245,
      "type": "SCALAR"
    },
    {
      "bufferView": 1,
      "byteOffset": 1572768,
      "componentType": 5126,
      "count": 52849,
      "max": [
        38.247962951660156,
        41.3656120300293,
        98.27326202392578
      ],
      "min": [
        -39.26774597167969,
        -41.379791259765625,
        0.07254791259765625
      ],
      "type": "VEC3"
    },
    {
      "bufferView": 1,
      "byteOffset": 2206956,
      "componentType": 5126,
      "count": 52849,
      "max": [
        0.9999783635139465,
        0.999982476234436,
        0.9999533891677856
      ],
      "min": [
        -0.9999912977218628,
        -0.9999207258224487,
        -0.999993622303009
      ],
      "type": "VEC3"
    },
    {
      "bufferView": 0,
      "byteOffset": 1252980,
      "componentType": 5125,
      "count": 237045,
      "type": "SCALAR"
    },
    {
      "bufferView": 1,
      "byteOffset": 2841144,
      "componentType": 5126,
      "count": 103,
      "max": [
        -29.39583969116211,
        -7.057350158691406,
        47.610740661621094
      ],
      "min": [
        -35.941986083984375,
        -16.93749237060547,
        36.045860290527344
      ],
      "type": "VEC3"
    },
    {
      "bufferView": 1,
      "byteOffset": 2842380,
      "componentType": 5126,
      "count": 103,
      "max": [
        0.9359700083732605,
        0.44176262617111206,
        0.7133253812789917
      ],
      "min": [
        -0.9882867336273193,
        -0.22221478819847107,
        -0.8382549285888672
      ],
      "type": "VEC3"
    },
    {
      "bufferView": 0,
      "byteOffset": 2201160,
      "componentType": 5125,
      "count": 462,
      "type": "SCALAR"
    },
    {
      "bufferView": 1,
      "byteOffset": 2843616,
      "componentType": 5126,
      "count": 102,
      "max": [
        -29.67711639404297,
        -7.0573577880859375,
        63.76227569580078
      ],
      "min": [
        -35.98515701293945,
        -16.93749237060547,
        52.06977844238281
      ],
      "type": "VEC3"
    },
    {
      "bufferView": 1,
      "byteOffset": 2844840,
      "componentType": 5126,
      "count": 102,
      "max": [
        0.9420605897903442,
        0.43586745858192444,
        0.8290402293205261
      ],
      "min": [
        -0.9910269975662231,
        -0.21383297443389893,
        -0.6809260845184326
      ],
      "type": "VEC3"
    },
    {
      "bufferView": 0,
      "byteOffset": 2203008,
      "componentType": 5125,
      "count": 456,
      "type": "SCALAR"
    },
    {
      "bufferView": 1,
      "byteOffset": 2846064,
      "componentType": 5126,
      "count": 1107,
      "max": [
        -8.103314399719238,
        -6.422737121582031,
        69.3181381225586
      ],
      "min": [
        -36.767677307128906,
        -17.579742431640625,
        30.477500915527344
      ],
      "type": "VEC3"
    },
    {
      "bufferView": 1,
      "byteOffset": 2859348,
      "componentType": 5126,
      "count": 1107,
      "max": [
        0.9998729825019836,
        0.9999699592590332,
        0.9950191378593445
      ],
      "min": [
        -0.9999147653579712,
        -0.9999676942825317,
        -0.995936930179596
      ],
      "type": "VEC3"
    },
    {
      "bufferView": 0,
      "byteOffset": 2204832,
      "componentType": 5125,
      "count": 3990,
      "type": "SCALAR"
    },
    {
      "bufferView": 1,
      "byteOffset": 2872632,
      "componentType": 5126,
      "count": 2562,
      "max": [
        -8.985958099365234,
        -2.6914215087890625,
        33.991790771484375
      ],
      "min": [
        -10.751242637634277,
        -4.456703186035156,
        32.226505279541016
      ],
      "type": "VEC3"
    },
    {
      "bufferView": 1,
      "byteOffset": 2903376,
      "componentType": 5126,
      "count": 2562,
      "max": [
        0.9999999403953552,
        1.0,
        1.0
      ],
      "min": [
        -0.9999999403953552,
        -1.0,
        -1.0
      ],
      "type": "VEC3"
    },
    {
      "bufferView": 0,
      "byteOffset": 2220792,
      "componentType": 5125,
      "count": 15360,
      "type": "SCALAR"
    },
    {
      "bufferView": 1,
      "byteOffset": 2934120,
      "componentType": 5126,
      "count": 2562,
      "max": [
        -8.985958099365234,
        -5.292083740234375,
        67.23908233642578
      ],
      "min": [
        -10.751242637634277,
        -7.0573577880859375,
        65.47380065917969
      ],
      "type": "VEC3"
    },
    {
      "bufferView": 1,
      "byteOffset": 2964864,
      "componentType": 5126,
      "count": 2562,
      "max": [
        0.9999998807907104,
        1.0,
        1.0
      ],
      "min": [
        -0.9999998211860657,
        -0.9999999403953552,
        -1.0
      ],
      "type": "VEC3"
    },
    {
      "bufferView": 0,
      "byteOffset": 2282232,
      "componentType": 5125,
      "count": 15360,
      "type": "SCALAR"
    }
  ],
  "asset": {
    "extras": {
      "author": "victoriusolo (https://sketchfab.com/victoriusolo)",
      "license": "CC-BY-4.0 (http://creativecommons.org/licenses/by/4.0/)",
      "source": "https://sketchfab.com/3d-models/vika2-140df1a18457413db5322d92190e4161",
      "title": "Vika2"
    },
    "generator": "Sketchfab-15.38.0",
    "version": "2.0"
  },
  "bufferViews": [
    {
      "buffer": 0,
      "byteLength": 2343672,
      "name": "floatBufferViews",
      "target": 34963
    },
    {
      "buffer": 0,
      "byteLength": 2995608,
      "byteOffset": 2343672,
      "byteStride": 12,
      "name": "floatBufferViews",
      "target": 34962
    }
  ],
  "buffers": [
    {
      "byteLength": 5339280,
      "uri": "scene.bin"
    }
  ],
  "materials": [
    {
      "doubleSided": true,
      "name": "Scene_-_Root",
      "pbrMetallicRoughness": {
        "metallicFactor": 0.0,
        "roughnessFactor": 0.6
      }
    }
  ],
  "meshes": [
    {
      "name": "Object_0",
      "primitives": [
        {
          "attributes": {
            "NORMAL": 1,
            "POSITION": 0
          },
          "indices": 2,
          "material": 0,
          "mode": 4
        }
      ]
    },
    {
      "name": "Object_1",
      "primitives": [
        {
          "attributes": {
            "NORMAL": 4,
            "POSITION": 3
          },
          "indices": 5,
          "material": 0,
          "mode": 4
        }
      ]
    },
    {
      "name": "Object_2",
      "primitives": [
        {
          "attributes": {
            "NORMAL": 7,
            "POSITION": 6
          },
          "indices": 8,
          "material": 0,
          "mode": 4
        }
      ]
    },
    {
      "name": "Object_3",
      "primitives": [
        {
          "attributes": {
            "NORMAL": 10,
            "POSITION": 9
          },
          "indices": 11,
          "material": 0,
          "mode": 4
        }
      ]
    },
    {
      "name": "Object_4",
      "primitives": [
        {
          "attributes": {
            "NORMAL": 13,
            "POSITION": 12
          },
          "indices": 14,
          "material": 0,
          "mode": 4
        }
      ]
    },
    {
      "name": "Object_5",
      "primitives": [
        {
          "attributes": {
            "NORMAL": 16,
            "POSITION": 15
          },
          "indices": 17,
          "material": 0,
          "mode": 4
        }
      ]
    },
    {
      "name": "Object_6",
      "primitives": [
        {
          "attributes": {
            "NORMAL": 19,
            "POSITION": 18
          },
          "indices": 20,
          "material": 0,
          "mode": 4
        }
      ]
    }
  ],
  "nodes": [
    {
      "children": [
        1
      ],
      "matrix": [
        1.0,
        0.0,
        0.0,
        0.0,
        0.0,
        2.220446049250313e-16,
        -1.0,
        0.0,
        0.0,
        1.0,
        2.220446049250313e-16,
        0.0,
        0.0,
        0.0,
        0.0,
        1.0
      ],
      "name": "Sketchfab_model"
    },
    {
      "children": [
        2
      ],
      "name": "root"
    },
    {
      "children": [
        3,
        6,
        8,
        10,
        12,
        14
      ],
      "matrix": [
        1.0,
        0.0,
        0.0,
        0.0,
        0.0,
        2.220446049250313e-16,
        1.0,
        0.0,
        0.0,
        -1.0,
        2.220446049250313e-16,
        0.0,
        0.0,
        0.0,
        0.0,
        1.0
      ],
      "name": "GLTF_SceneRootNode"
    },
    {
      "children": [
        4,
        5
      ],
      "matrix": [
        1.0,
        0.0,
        0.0,
        0.0,
        0.0,
        -1.0,
        -5.960463056453591e-08,
        0.0,
        0.0,
        -2.0912281684104528e-07,
        -0.9999994039535522,
        0.0,
        -1.705322392808739e-05,
        41.3798942565918,
        50.02605056762695,
        1.0
      ],
      "name": "_0"
    },
    {
      "mesh": 0,
      "name": "Object_4"
    },
    {
      "mesh": 1,
      "name": "Object_5"
    },
    {
      "children": [
        7
      ],
      "matrix": [
        1.0,
        0.0,
        0.0,
        0.0,
        0.0,
        -0.9999986886978149,
        -5.960457372111705e-08,
        0.0,
        0.0,
        9.518257115814777e-08,
        -0.9999986886978149,
        0.0,
        -1.705322392808739e-05,
        41.37994384765625,
        50.02605056762695,
        1.0
      ],
      "name": "_1"
    },
    {
      "mesh": 2,
      "name": "Object_7"
    },
    {
      "children": [
        9
      ],
      "matrix": [
        1.0,
        0.0,
        0.0,
        0.0,
        0.0,
        -1.0,
        -5.960463056453591e-08,
        0.0,
        0.0,
        -2.0912281684104528e-07,
        -0.9999994039535522,
        0.0,
        -1.705322392808739e-05,
        41.3798942565918,
        50.02605056762695,
        1.0
      ],
      "name": "_2"
    },
    {
      "mesh": 3,
      "name": "Object_9"
    },
    {
      "children": [
        11
      ],
      "matrix": [
        1.0,
        0.0,
        0.0,
        0.0,
        0.0,
        -1.0,
        -5.960463056453591e-08,
        0.0,
        0.0,
        -2.0912281684104528e-07,
        -0.9999994039535522,
        0.0,
        -1.705322392808739e-05,
        41.3798942565918,
        50.02605056762695,
        1.0
      ],
      "name": "_3"
    },
    {
      "mesh": 4,
      "name": "Object_11"
    },
    {
      "children": [
        13
      ],
      "matrix": [
        1.0,
        0.0,
        0.0,
        0.0,
        0.0,
        -1.1920928955078125e-07,
        -0.9999998807907104,
        0.0,
        0.0,
        0.9999998807907104,
        -1.1920928955078125e-07,
        0.0,
        -1.7053222109097987e-05,
        -7.629388164787088e-06,
        4.650877963285893e-05,
        1.0
      ],
      "name": "_4"
    },
    {
      "mesh": 5,
      "name": "Object_13"
    },
    {
      "children": [
        15
      ],
      "matrix": [
        1.0,
        0.0,
        0.0,
        0.0,
        0.0,
        -1.1920928955078125e-07,
        -0.9999998807907104,
        0.0,
        0.0,
        0.9999998807907104,
        -1.1920928955078125e-07,
        0.0,
        -1.7053222109097987e-05,
        -7.629388164787088e-06,
        4.650877963285893e-05,
        1.0
      ],
      "name": "_5"
    },
    {
      "mesh": 6,
      "name": "Object_15"
    }
  ],
  "scene": 0,
  "scenes": [
    {
      "name": "Sketchfab_Scene",
      "nodes": [
        0
      ]
    }
  ]
}
