{
  "accessors": [
    {
      "bufferView": 1,
      "componentType": 5126,
      "count": 35451,
      "max": [
        0.14379245042800903,
        0.12397637218236923,
        0.5386453866958618
      ],
      "min": [
        -0.198918417096138,
        -0.31267133355140686,
        0.17740464210510254
      ],
      "type": "VEC3"
    },
    {
      "bufferView": 1,
      "byteOffset": 425412,
      "componentType": 5126,
      "count": 35451,
      "max": [
        0.9999457001686096,
        0.9999962449073792,
        0.9999829530715942
      ],
      "min": [
        -0.9999939203262329,
        -0.999993622303009,
        -1.0
      ],
      "type": "VEC3"
    },
    {
      "bufferView": 2,
      "componentType": 5126,
      "count": 35451,
      "max": [
        0.7372549176216125,
        0.7372549176216125,
        0.7372549176216125,
        1.0
      ],
      "min": [
        0.7372549176216125,
        0.7372549176216125,
        0.7372549176216125,
        1.0
      ],
      "type": "VEC4"
    },
    {
      "bufferView": 0,
      "componentType": 5125,
      "count": 155370,
      "type": "SCALAR"
    },
    {
      "bufferView": 1,
      "byteOffset": 850824,
      "componentType": 5126,
      "count": 47,
      "max": [
        -0.15587714314460754,
        -0.10615578293800354,
        0.43195632100105286
      ],
      "min": [
        -0.1844506412744522,
        -0.15491776168346405,
        0.38883015513420105
      ],
      "type": "VEC3"
    },
    {
      "bufferView": 1,
      "byteOffset": 851388,
      "componentType": 5126,
      "count": 47,
      "max": [
        0.9318221807479858,
        0.6179726719856262,
        0.1611049324274063
      ],
      "min": [
        -0.9843431115150452,
        -0.8286871314048767,
        -0.4173981845378876
      ],
      "type": "VEC3"
    },
    {
      "bufferView": 2,
      "byteOffset": 567216,
      "componentType": 5126,
      "count": 47,
      "max": [
        0.7372549176216125,
        0.7372549176216125,
        0.7372549176216125,
        1.0
      ],
      "min": [
        0.7372549176216125,
        0.7372549176216125,
        0.7372549176216125,
        1.0
      ],
      "type": "VEC4"
    },
    {
      "bufferView": 0,
      "byteOffset": 621480,
      "componentType": 5125,
      "count": 186,
      "type": "SCALAR"
    },
    {
      "bufferView": 1,
      "byteOffset": 851952,
      "componentType": 5126,
      "count": 47,
      "max": [
        -0.1574629247188568,
        -0.03435441106557846,
        0.43195632100105286
      ],
      "min": [
        -0.1846390813589096,
        -0.08413313329219818,
        0.38883015513420105
      ],
      "type": "VEC3"
    },
    {
      "bufferView": 1,
      "byteOffset": 852516,
      "componentType": 5126,
      "count": 47,
      "max": [
        0.9461209177970886,
        0.8408269286155701,
        0.20858806371688843
      ],
      "min": [
        -0.9866612553596497,
        -0.627994179725647,
        -0.42739295959472656
      ],
      "type": "VEC3"
    },
    {
      "bufferView": 2,
      "byteOffset": 567968,
      "componentType": 5126,
      "count": 47,
      "max": [
        0.7372549176216125,
        0.7372549176216125,
        0.7372549176216125,
        1.0
      ],
      "min": [
        0.7372549176216125,
        0.7372549176216125,
        0.7372549176216125,
        1.0
      ],
      "type": "VEC4"
    },
    {
      "bufferView": 0,
      "byteOffset": 622224,
      "componentType": 5125,
      "count": 180,
      "type": "SCALAR"
    },
    {
      "bufferView": 1,
      "byteOffset": 853080,
      "componentType": 5126,
      "count": 529,
      "max": [
        -0.06294149160385132,
        -0.010103439912199974,
        0.4347597062587738
      ],
      "min": [
        -0.1878349334001541,
        -0.17946180701255798,
        0.3860671818256378
      ],
      "type": "VEC3"
    },
    {
      "bufferView": 1,
      "byteOffset": 859428,
      "componentType": 5126,
      "count": 529,
      "max": [
        0.9991970062255859,
        0.9931754469871521,
        0.9993926882743835
      ],
      "min": [
        -0.9994251132011414,
        -0.9797283411026001,
        -0.9998398423194885
      ],
      "type": "VEC3"
    },
    {
      "bufferView": 2,
      "byteOffset": 568720,
      "componentType": 5126,
      "count": 529,
      "max": [
        0.7372549176216125,
        0.7372549176216125,
        0.7372549176216125,
        1.0
      ],
      "min": [
        0.7372549176216125,
        0.7372549176216125,
        0.7372549176216125,
        1.0
      ],
      "type": "VEC4"
    },
    {
      "bufferView": 0,
      "byteOffset": 622944,
      "componentType": 5125,
      "count": 1536,
      "type": "SCALAR"
    },
    {
      "bufferView": 1,
      "byteOffset": 865776,
      "componentType": 5126,
      "count": 885,
      "max": [
        -0.06678931415081024,
        -0.16430072486400604,
        0.3774692118167877
      ],
      "min": [
        -0.0744844451546669,
        -0.17199686169624329,
        0.36977311968803406
      ],
      "type": "VEC3"
    },
    {
      "bufferView": 1,
      "byteOffset": 876396,
      "componentType": 5126,
      "count": 885,
      "max": [
        0.9989030957221985,
        0.9998537302017212,
        0.9994789361953735
      ],
      "min": [
        -0.9984832406044006,
        -0.9966726303100586,
        -0.999973714351654
      ],
      "type": "VEC3"
    },
    {
      "bufferView": 2,
      "byteOffset": 577184,
      "componentType": 5126,
      "count": 885,
      "max": [
        0.7372549176216125,
        0.7372549176216125,
        0.7372549176216125,
        1.0
      ],
      "min": [
        0.7372549176216125,
        0.7372549176216125,
        0.7372549176216125,
        1.0
      ],
      "type": "VEC4"
    },
    {
      "bufferView": 0,
      "byteOffset": 629088,
      "componentType": 5125,
      "count": 5298,
      "type": "SCALAR"
    },
    {
      "bufferView": 1,
      "byteOffset": 887016,
      "componentType": 5126,
      "count": 899,
      "max": [
        -0.06679955124855042,
        -0.019187601283192635,
        0.38882091641426086
      ],
      "min": [
        -0.07449466735124588,
        -0.026874510571360588,
        0.381134033203125
      ],
      "type": "VEC3"
    },
    {
      "bufferView": 1,
      "byteOffset": 897804,
      "componentType": 5126,
      "count": 899,
      "max": [
        0.9974627494812012,
        0.9988692402839661,
        0.9994347095489502
      ],
      "min": [
        -0.9995449781417847,
        -0.999881386756897,
        -0.9964072704315186
      ],
      "type": "VEC3"
    },
    {
      "bufferView": 2,
      "byteOffset": 591344,
      "componentType": 5126,
      "count": 899,
      "max": [
        0.7372549176216125,
        0.7372549176216125,
        0.7372549176216125,
        1.0
      ],
      "min": [
        0.7372549176216125,
        0.7372549176216125,
        0.7372549176216125,
        1.0
      ],
      "type": "VEC4"
    },
    {
      "bufferView": 0,
      "byteOffset": 650280,
      "componentType": 5125,
      "count": 5382,
      "type": "SCALAR"
    }
  ],
  "asset": {
    "extras": {
      "author": "victoriusolo (https://sketchfab.com/victoriusolo)",
      "license": "CC-BY-4.0 (http://creativecommons.org/licenses/by/4.0/)",
      "source": "https://sketchfab.com/3d-models/vika5-81ff524b808e4d9b8f671b74efb4c9c1",
      "title": "Vika5"
    },
    "generator": "Sketchfab-15.38.0",
    "version": "2.0"
  },
  "bufferViews": [
    {
      "buffer": 0,
      "byteLength": 671808,
      "name": "floatBufferViews",
      "target": 34963
    },
    {
      "buffer": 0,
      "byteLength": 908592,
      "byteOffset": 671808,
      "byteStride": 12,
      "name": "floatBufferViews",
      "target": 34962
    },
    {
      "buffer": 0,
      "byteLength": 605728,
      "byteOffset": 1580400,
      "byteStride": 16,
      "name": "floatBufferViews",
      "target": 34962
    }
  ],
  "buffers": [
    {
      "byteLength": 2186128,
      "uri": "scene.bin"
    }
  ],
  "materials": [
    {
      "doubleSided": true,
      "name": "Scene_-_Root",
      "pbrMetallicRoughness": {
        "metallicFactor": 0.0,
        "roughnessFactor": 0.6
      }
    }
  ],
  "meshes": [
    {
      "name": "Object_0",
      "primitives": [
        {
          "attributes": {
            "COLOR_0": 2,
            "NORMAL": 1,
            "POSITION": 0
          },
          "indices": 3,
          "material": 0,
          "mode": 4
        }
      ]
    },
    {
      "name": "Object_1",
      "primitives": [
        {
          "attributes": {
            "COLOR_0": 6,
            "NORMAL": 5,
            "POSITION": 4
          },
          "indices": 7,
          "material": 0,
          "mode": 4
        }
      ]
    },
    {
      "name": "Object_2",
      "primitives": [
        {
          "attributes": {
            "COLOR_0": 10,
            "NORMAL": 9,
            "POSITION": 8
          },
          "indices": 11,
          "material": 0,
          "mode": 4
        }
      ]
    },
    {
      "name": "Object_3",
      "primitives": [
        {
          "attributes": {
            "COLOR_0": 14,
            "NORMAL": 13,
            "POSITION": 12
          },
          "indices": 15,
          "material": 0,
          "mode": 4
        }
      ]
    },
    {
      "name": "Object_4",
      "primitives": [
        {
          "attributes": {
            "COLOR_0": 18,
            "NORMAL": 17,
            "POSITION": 16
          },
          "indices": 19,
          "material": 0,
          "mode": 4
        }
      ]
    },
    {
      "name": "Object_5",
      "primitives": [
        {
          "attributes": {
            "COLOR_0": 22,
            "NORMAL": 21,
            "POSITION": 20
          },
          "indices": 23,
          "material": 0,
          "mode": 4
        }
      ]
    }
  ],
  "nodes": [
    {
      "children": [
        1
      ],
      "matrix": [
        1.0,
        0.0,
        0.0,
        0.0,
        0.0,
        2.220446049250313e-16,
        -1.0,
        0.0,
        0.0,
        1.0,
        2.220446049250313e-16,
        0.0,
        0.0,
        0.0,
        0.0,
        1.0
      ],
      "name": "Sketchfab_model"
    },
    {
      "children": [
        2
      ],
      "name": "root"
    },
    {
      "children": [
        3
      ],
      "matrix": [
        1.0,
        0.0,
        0.0,
        0.0,
        0.0,
        2.220446049250313e-16,
        1.0,
        0.0,
        0.0,
        -1.0,
        2.220446049250313e-16,
        0.0,
        0.0,
        0.0,
        0.0,
        1.0
      ],
      "name": "GLTF_SceneRootNode"
    },
    {
      "children": [
        4,
        6,
        8,
        10,
        12,
        14
      ],
      "name": "_0"
    },
    {
      "children": [
        5
      ],
      "matrix": [
        0.9999999403953552,
        0.0,
        0.0,
        0.0,
        0.0,
        -1.1920928244535389e-07,
        -0.9999998211860657,
        0.0,
        0.0,
        0.9999998211860657,
        -1.1920928244535389e-07,
        0.0,
        0.0,
        -0.17740461230278015,
        2.1148279572003048e-08,
        1.0
      ],
      "name": "_1"
    },
    {
      "mesh": 0,
      "name": "Object_5"
    },
    {
      "children": [
        7
      ],
      "matrix": [
        0.9999999403953552,
        0.0,
        0.0,
        0.0,
        0.0,
        -1.1920928244535389e-07,
        -0.9999998211860657,
        0.0,
        0.0,
        0.9999998211860657,
        -1.1920928244535389e-07,
        0.0,
        0.0,
        -0.17740461230278015,
        2.1148279572003048e-08,
        1.0
      ],
      "name": "_2"
    },
    {
      "mesh": 1,
      "name": "Object_7"
    },
    {
      "children": [
        9
      ],
      "matrix": [
        0.9999999403953552,
        0.0,
        0.0,
        0.0,
        0.0,
        -1.1920928244535389e-07,
        -0.9999998211860657,
        0.0,
        0.0,
        0.9999998211860657,
        -1.1920928244535389e-07,
        0.0,
        0.0,
        -0.17740461230278015,
        2.1148279572003048e-08,
        1.0
      ],
      "name": "_3"
    },
    {
      "mesh": 2,
      "name": "Object_9"
    },
    {
      "children": [
        11
      ],
      "matrix": [
        0.9999999403953552,
        0.0,
        0.0,
        0.0,
        0.0,
        -1.1920928244535389e-07,
        -0.9999998211860657,
        0.0,
        0.0,
        0.9999998211860657,
        -1.1920928244535389e-07,
        0.0,
        0.0,
        -0.17740461230278015,
        2.1148279572003048e-08,
        1.0
      ],
      "name": "_4"
    },
    {
      "mesh": 3,
      "name": "Object_11"
    },
    {
      "children": [
        13
      ],
      "matrix": [
        0.9999999403953552,
        0.0,
        0.0,
        0.0,
        0.0,
        -1.1920928244535389e-07,
        -0.9999998211860657,
        0.0,
        0.0,
        0.9999998211860657,
        -1.1920928244535389e-07,
        0.0,
        0.0,
        -0.17740461230278015,
        2.1148279572003048e-08,
        1.0
      ],
      "name": "_5"
    },
    {
      "mesh": 4,
      "name": "Object_13"
    },
    {
      "children": [
        15
      ],
      "matrix": [
        0.9999999403953552,
        0.0,
        0.0,
        0.0,
        0.0,
        -1.1920928244535389e-07,
        -0.9999998211860657,
        0.0,
        0.0,
        0.9999998211860657,
        -1.1920928244535389e-07,
        0.0,
        0.0,
        -0.17740461230278015,
        2.1148279572003048e-08,
        1.0
      ],
      "name": "_6"
    },
    {
      "mesh": 5,
      "name": "Object_15"
    }
  ],
  "scene": 0,
  "scenes": [
    {
      "name": "Sketchfab_Scene",
      "nodes": [
        0
      ]
    }
  ]
}
