{
  "accessors": [
    {
      "bufferView": 1,
      "componentType": 5126,
      "count": 24,
      "max": [
        0.03999800235033035,
        0.08299800753593445,
        0.03999800235033035
      ],
      "min": [
        0.0,
        0.04299800470471382,
        0.0
      ],
      "type": "VEC3"
    },
    {
      "bufferView": 1,
      "byteOffset": 288,
      "componentType": 5126,
      "count": 24,
      "max": [
        1.0,
        1.0,
        1.0
      ],
      "min": [
        -1.0,
        -1.0,
        -1.0
      ],
      "type": "VEC3"
    },
    {
      "bufferView": 0,
      "componentType": 5125,
      "count": 36,
      "type": "SCALAR"
    },
    {
      "bufferView": 1,
      "byteOffset": 576,
      "componentType": 5126,
      "count": 24,
      "max": [
        0.03999800235033035,
        0.08299800753593445,
        0.03999800235033035
      ],
      "min": [
        0.0,
        0.04299800470471382,
        0.0
      ],
      "type": "VEC3"
    },
    {
      "bufferView": 1,
      "byteOffset": 864,
      "componentType": 5126,
      "count": 24,
      "max": [
        1.0,
        1.0,
        1.0
      ],
      "min": [
        -1.0,
        -1.0,
        -1.0
      ],
      "type": "VEC3"
    },
    {
      "bufferView": 0,
      "byteOffset": 144,
      "componentType": 5125,
      "count": 36,
      "type": "SCALAR"
    }
  ],
  "asset": {
    "extras": {
      "author": "victoriusolo (https://sketchfab.com/victoriusolo)",
      "license": "CC-BY-4.0 (http://creativecommons.org/licenses/by/4.0/)",
      "source": "https://sketchfab.com/3d-models/cube-test-18a0d6861a0c43f789a2be54e43fa405",
      "title": "Cube test"
    },
    "generator": "Sketchfab-15.38.0",
    "version": "2.0"
  },
  "bufferViews": [
    {
      "buffer": 0,
      "byteLength": 288,
      "name": "floatBufferViews",
      "target": 34963
    },
    {
      "buffer": 0,
      "byteLength": 1152,
      "byteOffset": 288,
      "byteStride": 12,
      "name": "floatBufferViews",
      "target": 34962
    }
  ],
  "buffers": [
    {
      "byteLength": 1440,
      "uri": "scene.bin"
    }
  ],
  "materials": [
    {
      "name": "Green",
      "pbrMetallicRoughness": {
        "baseColorFactor": [
          0.0152085,
          0.496933,
          0.0722719,
          1.0
        ],
        "metallicFactor": 0.0
      }
    }
  ],
  "meshes": [
    {
      "name": "Object_0",
      "primitives": [
        {
          "attributes": {
            "NORMAL": 1,
            "POSITION": 0
          },
          "indices": 2,
          "material": 0,
          "mode": 4
        }
      ]
    },
    {
      "name": "Object_1",
      "primitives": [
        {
          "attributes": {
            "NORMAL": 4,
            "POSITION": 3
          },
          "indices": 5,
          "material": 0,
          "mode": 4
        }
      ]
    }
  ],
  "nodes": [
    {
      "children": [
        1
      ],
      "matrix": [
        1.0,
        0.0,
        0.0,
        0.0,
        0.0,
        2.220446049250313e-16,
        -1.0,
        0.0,
        0.0,
        1.0,
        2.220446049250313e-16,
        0.0,
        0.0,
        0.0,
        0.0,
        1.0
      ],
      "name": "Sketchfab_model"
    },
    {
      "children": [
        2
      ],
      "name": "root"
    },
    {
      "children": [
        3,
        5
      ],
      "matrix": [
        1.0,
        0.0,
        0.0,
        0.0,
        0.0,
        2.220446049250313e-16,
        1.0,
        0.0,
        0.0,
        -1.0,
        2.220446049250313e-16,
        0.0,
        0.0,
        0.0,
        0.0,
        1.0
      ],
      "name": "GLTF_SceneRootNode"
    },
    {
      "children": [
        4
      ],
      "matrix": [
        0.9654250144958496,
        0.0,
        0.0,
        0.0,
        0.0,
        -1.1508763009260292e-07,
        -0.9654248952865601,
        0.0,
        0.0,
        0.9654248952865601,
        -1.1508763009260292e-07,
        0.0,
        -0.019078195095062256,
        7.2502914783001415e-09,
        0.0608198456466198,
        1.0
      ],
      "name": "_0"
    },
    {
      "mesh": 0,
      "name": "Object_4"
    },
    {
      "children": [
        6
      ],
      "matrix": [
        0.5756341218948364,
        0.0,
        0.0,
        0.0,
        0.0,
        -3.1580654535900976e-08,
        -0.2649177014827728,
        0.0,
        0.0,
        0.2649177014827728,
        -3.1580654535900976e-08,
        0.0,
        -0.011282763443887234,
        0.019307538866996765,
        0.04577702283859253,
        1.0
      ],
      "name": "_1"
    },
    {
      "mesh": 1,
      "name": "Object_6"
    }
  ],
  "scene": 0,
  "scenes": [
    {
      "name": "Sketchfab_Scene",
      "nodes": [
        0
      ]
    }
  ]
}
